<svg xmlns="http://www.w3.org/2000/svg" viewBox="0 0 431.9 165.3"><defs><style>.cls-1{isolation:isolate;}.cls-2{mix-blend-mode:multiply;}.cls-3{fill:#9cb8ff;}</style></defs><title>mmi_logo_ombre</title><g class="cls-1"><g id="Calque_1" data-name="Calque 1"><g class="cls-2"><path class="cls-3" d="M410.65,77.2a50.11,50.11,0,0,0-11.9-18.5,45.18,45.18,0,0,0-16-9.7,59.77,59.77,0,0,0-20.6-3.4q-28,0-45.5,21.2-13.8-21.15-41.2-21.2l.1.1c-.8,0-1.6-.1-2.5-.1q-28.05,0-45.5,21.2-13.8-21.15-41.2-21.2l.1.1c-.7,0-1.4-.1-2.1-.1h-.3q-27.9,0-45.3,20.9a45.9,45.9,0,0,0-6.4-7.7c-1.1-1-2.2-2-3.4-2.9-8.3-6.8-18.8-10.3-31.6-10.3h-1.6c-14.5,0-26.9,4.3-37.1,12.8V47.3H30.05V142h29.4V102.6A35.52,35.52,0,0,1,61.85,89a28,28,0,0,1,6.5-9.7A29.56,29.56,0,0,1,79.85,73a3.09,3.09,0,0,1,.8-.2.76.76,0,0,0,.4-.1,37.71,37.71,0,0,1,8.3-1,29.82,29.82,0,0,1,20.7,7.7c5.6,5.2,8.4,13.3,8.4,24.6v38h29.4V101.2a33.67,33.67,0,0,1,2.4-12.3,26.38,26.38,0,0,1,16.2-15.4,38.9,38.9,0,0,1,11.4-1.9,29.65,29.65,0,0,1,20.7,7.7q8.4,7.8,8.4,24.6v38h29.5V102.6a35.52,35.52,0,0,1,2.4-13.6,26.38,26.38,0,0,1,16.2-15.4,35.86,35.86,0,0,1,11.4-1.9,30.07,30.07,0,0,1,20.8,7.7q8.4,7.8,8.4,24.6v38h30.1V102.6a35.52,35.52,0,0,1,2.4-13.6,26.38,26.38,0,0,1,16.2-15.4,36,36,0,0,1,11.5-1.9,30.07,30.07,0,0,1,20.8,7.7c5.7,5.1,8.4,13.4,8.4,24.6v38h29.2V99.7a67.21,67.21,0,0,0-3.6-22.5" transform="translate(-16.05 -15.3)"/></g><path d="M396.65,63.2a50.11,50.11,0,0,0-11.9-18.5,45.18,45.18,0,0,0-16-9.7,59.77,59.77,0,0,0-20.6-3.4q-28,0-45.5,21.2-13.8-21.15-41.2-21.2l.1.1c-.8,0-1.6-.1-2.5-.1q-28.05,0-45.5,21.2-13.8-21.15-41.2-21.2l.1.1c-.7,0-1.4-.1-2.1-.1h-.3q-27.9,0-45.3,20.9a45.9,45.9,0,0,0-6.4-7.7c-1.1-1-2.2-2-3.4-2.9-8.3-6.8-18.8-10.3-31.6-10.3h-1.6c-14.5,0-26.9,4.3-37.1,12.8V33.3H16.05V128h29.4V88.6A35.52,35.52,0,0,1,47.85,75a28,28,0,0,1,6.5-9.7A29.56,29.56,0,0,1,65.85,59a3.09,3.09,0,0,1,.8-.2.76.76,0,0,0,.4-.1,37.71,37.71,0,0,1,8.3-1,29.82,29.82,0,0,1,20.7,7.7c5.6,5.2,8.4,13.3,8.4,24.6v38h29.4V87.2a33.67,33.67,0,0,1,2.4-12.3,26.38,26.38,0,0,1,16.2-15.4,38.9,38.9,0,0,1,11.4-1.9,29.65,29.65,0,0,1,20.7,7.7q8.4,7.8,8.4,24.6v38h29.5V88.6a35.52,35.52,0,0,1,2.4-13.6,26.38,26.38,0,0,1,16.2-15.4,35.86,35.86,0,0,1,11.4-1.9,30.07,30.07,0,0,1,20.8,7.7q8.4,7.8,8.4,24.6v38h30.1V88.6a35.52,35.52,0,0,1,2.4-13.6,26.38,26.38,0,0,1,16.2-15.4,36,36,0,0,1,11.5-1.9,30.07,30.07,0,0,1,20.8,7.7c5.7,5.1,8.4,13.4,8.4,24.6v38h29.2V85.7a67.21,67.21,0,0,0-3.6-22.5" transform="translate(-16.05 -15.3)"/><g class="cls-2"><path class="cls-3" d="M448,45.9a16.6,16.6,0,1,1-16.6-16.6A16.62,16.62,0,0,1,448,45.9" transform="translate(-16.05 -15.3)"/></g><path d="M434,31.9a16.6,16.6,0,1,1-16.6-16.6A16.62,16.62,0,0,1,434,31.9" transform="translate(-16.05 -15.3)"/><g id="Calque_2" data-name="Calque 2"><path d="M215.2,172.3a9.51,9.51,0,0,1-.6,3.5,6.42,6.42,0,0,1-1.8,2.5,7.2,7.2,0,0,1-2.7,1.5,12.3,12.3,0,0,1-3.5.5H195.4V150.9h10.8a12.7,12.7,0,0,1,3.4.5,10,10,0,0,1,2.7,1.5,6.9,6.9,0,0,1,1.8,2.4,7.94,7.94,0,0,1,.6,3.2,7.07,7.07,0,0,1-1.2,4.1,6.25,6.25,0,0,1-3.4,2.5,7.33,7.33,0,0,1,3.7,2.7,7.1,7.1,0,0,1,1.4,4.5m-2.7-13.7a6.69,6.69,0,0,0-.5-2.6,4.89,4.89,0,0,0-1.4-1.8,6.81,6.81,0,0,0-2.1-1,10.07,10.07,0,0,0-2.5-.3h-8.4v11.4H206a10.07,10.07,0,0,0,2.5-.3,6.81,6.81,0,0,0,2.1-1,4.2,4.2,0,0,0,1.4-1.8,6.69,6.69,0,0,0,.5-2.6m.5,13.7a5.45,5.45,0,0,0-1.8-4.4,6.8,6.8,0,0,0-4.8-1.6h-8.7v12.1h8.7a6.8,6.8,0,0,0,4.8-1.6,5.8,5.8,0,0,0,1.8-4.5" transform="translate(-16.05 -15.3)"/><path d="M246.3,165.6v4.3a15.82,15.82,0,0,1-.3,3.2,7.52,7.52,0,0,1-.8,2.4,9.76,9.76,0,0,1-1.6,2.1,9.49,9.49,0,0,1-3.4,2.2,11,11,0,0,1-4,.8,10.57,10.57,0,0,1-4-.8,11.05,11.05,0,0,1-3.4-2.2,9.76,9.76,0,0,1-1.6-2.1,8.47,8.47,0,0,1-.8-2.4,15.14,15.14,0,0,1-.3-3.2v-8.6a15.82,15.82,0,0,1,.3-3.2,11.22,11.22,0,0,1,.8-2.4,9.76,9.76,0,0,1,1.6-2.1,9.49,9.49,0,0,1,3.4-2.2,10.69,10.69,0,0,1,11.4,2.2,9.76,9.76,0,0,1,1.6,2.1,8.47,8.47,0,0,1,.8,2.4,15.14,15.14,0,0,1,.3,3.2v4.3m-2.2,0c0-1.6,0-2.9-.1-4a12.31,12.31,0,0,0-.3-2.9,6.49,6.49,0,0,0-.7-2.1,8.85,8.85,0,0,0-1.2-1.7,7.82,7.82,0,0,0-2.6-1.7,8,8,0,0,0-3-.6,8.13,8.13,0,0,0-5.6,2.3,6.57,6.57,0,0,0-1.2,1.7,10.33,10.33,0,0,0-.7,2.1,21.64,21.64,0,0,0-.3,2.9c-.1,1.1-.1,2.5-.1,4s0,2.9.1,4a12.31,12.31,0,0,0,.3,2.9,6.49,6.49,0,0,0,.7,2.1,8.85,8.85,0,0,0,1.2,1.7,7.82,7.82,0,0,0,2.6,1.7,8,8,0,0,0,3,.6,7.65,7.65,0,0,0,3-.6,7.32,7.32,0,0,0,2.6-1.7,6.57,6.57,0,0,0,1.2-1.7,10.33,10.33,0,0,0,.7-2.1c.1-.8.2-1.8.3-2.9s.1-2.4.1-4" transform="translate(-16.05 -15.3)"/><path d="M268.7,166.8h-8.1v13.6h-2.2V150.9h11.2a11.42,11.42,0,0,1,3.3.5,11.74,11.74,0,0,1,2.7,1.5,6.42,6.42,0,0,1,1.8,2.5,9,9,0,0,1,.6,3.4,8,8,0,0,1-1.8,5.4,8.38,8.38,0,0,1-4.9,2.6l7.1,13.6h-2.7Zm7.1-8a5.52,5.52,0,0,0-1.8-4.5,7.12,7.12,0,0,0-4.7-1.4h-8.7v11.9h8.7a7.72,7.72,0,0,0,4.7-1.4,5.6,5.6,0,0,0,1.8-4.6" transform="translate(-16.05 -15.3)"/><path d="M309.8,165.2v3.2a19.53,19.53,0,0,1-.3,3.4,16.81,16.81,0,0,1-.9,3.2,7.82,7.82,0,0,1-1.7,2.6,9.9,9.9,0,0,1-7.4,2.7h-9.8V150.9h9.9a10.05,10.05,0,0,1,7.4,2.7,8.52,8.52,0,0,1,1.7,2.5,14,14,0,0,1,.9,2.9,15.53,15.53,0,0,1,.3,3.1c-.1,1.1-.1,2.1-.1,3.1m-2.2,0v-2.6a24.52,24.52,0,0,0-.2-2.7,11,11,0,0,0-.6-2.6,5.71,5.71,0,0,0-1.3-2.1,6.42,6.42,0,0,0-2.9-1.8,12.7,12.7,0,0,0-3.4-.5h-7.1v25.5h7.1a12.7,12.7,0,0,0,3.4-.5,5.94,5.94,0,0,0,2.9-1.8,5.76,5.76,0,0,0,1.3-2.3,13.56,13.56,0,0,0,.6-2.9c.1-1,.2-2,.2-3a24.3,24.3,0,0,1,0-2.7" transform="translate(-16.05 -15.3)"/><polygon points="305.85 135.6 323.65 135.6 323.65 137.6 308.05 137.6 308.05 149.2 321.35 149.2 321.35 151.2 308.05 151.2 308.05 163.1 323.65 163.1 323.65 165 305.85 165 305.85 135.6"/><path d="M365.5,173.2H351.8l-2.6,7.2h-2.4L357.6,151h2l10.8,29.4H368Zm-13-2h12.3l-6.2-17.3Z" transform="translate(-16.05 -15.3)"/><path d="M399.5,170.8a8.27,8.27,0,0,1-.8,3.9,13,13,0,0,1-2.1,3.1,8.25,8.25,0,0,1-3.2,2,12.36,12.36,0,0,1-8.2,0,11.56,11.56,0,0,1-3.2-2,9.45,9.45,0,0,1-2.1-3.1,10,10,0,0,1-.7-3.9V150.9h2.2v19.6a8.81,8.81,0,0,0,.6,3.3,7.6,7.6,0,0,0,1.6,2.6,7.16,7.16,0,0,0,2.5,1.6,8.29,8.29,0,0,0,3.2.6,7.94,7.94,0,0,0,3.2-.6,7.16,7.16,0,0,0,2.5-1.6,7.6,7.6,0,0,0,1.6-2.6,8.8,8.8,0,0,0,.5-3.3V150.9h2.2l.2,19.9Z" transform="translate(-16.05 -15.3)"/><polygon points="402.65 151.9 395.05 165 392.45 165 401.55 149.9 393.05 135.6 395.65 135.6 402.65 148 409.75 135.6 412.35 135.6 403.85 149.9 413.05 165 410.35 165 402.65 151.9"/></g></g></g></svg>